HIERARCHY
ROOT Pelvis
{
	OFFSET 0.000000 0.000000 0.000000
	CHANNELS 6 Xposition Yposition Zposition Xrotation Yrotation Zrotation
	JOINT LeftUpLeg_virtual
	{
		OFFSET 0.000000 0.000000 0.000000
		CHANNELS 3 Xrotation Yrotation Zrotation
		JOINT LeftUpLeg
		{
			OFFSET 18.735201 -5.666702 -4.541200
			CHANNELS 3 Xrotation Yrotation Zrotation
			JOINT LeftLeg
			{
				OFFSET -0.021200 -31.938179 0.493100
				CHANNELS 3 Xrotation Yrotation Zrotation
				JOINT LeftFoot
				{
					OFFSET 0.021200 -31.938179 -4.336299
					CHANNELS 3 Xrotation Yrotation Zrotation
					JOINT LeftToeBase
					{
						OFFSET 0.943001 -26.722000 15.023500
						CHANNELS 3 Xrotation Yrotation Zrotation
						End Site
						{
							OFFSET 0 0 0
						}
					}
				}
			}
		}
	}
	JOINT RightUpLeg_virtual
	{
		OFFSET 0.000000 0.000000 0.000000
		CHANNELS 3 Xrotation Yrotation Zrotation
		JOINT RightUpLeg
		{
			OFFSET -18.735201 -5.666702 -4.541200
			CHANNELS 3 Xrotation Yrotation Zrotation
			JOINT RightLeg
			{
				OFFSET 0.018946 -31.938133 0.493100
				CHANNELS 3 Xrotation Yrotation Zrotation
				JOINT RightFoot
				{
					OFFSET -0.018946 -31.938126 -4.336299
					CHANNELS 3 Xrotation Yrotation Zrotation
					JOINT RightToeBase
					{
						OFFSET -0.943001 -26.722004 15.023500
						CHANNELS 3 Xrotation Yrotation Zrotation
						End Site
						{
							OFFSET 0 0 0
						}
					}
				}
			}
		}
	}
	JOINT Hips_virtual
	{
		OFFSET 0.000000 0.000000 0.000000
		CHANNELS 3 Xrotation Yrotation Zrotation
		JOINT Hips
		{
			OFFSET -0.000000 -0.000000 -0.000000
			CHANNELS 3 Xrotation Yrotation Zrotation
			JOINT Spine
			{
				OFFSET 0.000000 10.199997 -0.299500
				CHANNELS 3 Xrotation Yrotation Zrotation
				JOINT Spine1
				{
					OFFSET 0.000000 11.900002 -1.516600
					CHANNELS 3 Xrotation Yrotation Zrotation
					JOINT Spine2
					{
						OFFSET 0.000000 13.600006 -2.842500
						CHANNELS 3 Xrotation Yrotation Zrotation
						JOINT Neck_virtual
						{
							OFFSET 0.000000 0.000000 0.000000
							CHANNELS 3 Xrotation Yrotation Zrotation
							JOINT Neck
							{
								OFFSET 0.000000 9.624100 -2.890100
								CHANNELS 3 Xrotation Yrotation Zrotation
								JOINT Head
								{
									OFFSET 0.000000 14.068802 -1.351900
									CHANNELS 3 Xrotation Yrotation Zrotation
									End Site
									{
										OFFSET 0 0 0
									}
								}
							}
						}
						JOINT LeftShoulder_virtual
						{
							OFFSET 0.000000 0.000000 0.000000
							CHANNELS 3 Xrotation Yrotation Zrotation
							JOINT LeftShoulder
							{
								OFFSET 15.263000 10.923401 -0.547700
								CHANNELS 3 Xrotation Yrotation Zrotation
								JOINT LeftArm
								{
									OFFSET 25.438599 -2.830597 -13.032500
									CHANNELS 3 Xrotation Yrotation Zrotation
									JOINT LeftForeArm
									{
										OFFSET 29.960503 0.000000 0.000000
										CHANNELS 3 Xrotation Yrotation Zrotation
										JOINT LeftHand
										{
											OFFSET 27.849251 0.000000 0.000000
											CHANNELS 3 Xrotation Yrotation Zrotation
											End Site
											{
												OFFSET 0 0 0
											}
										}
									}
								}
							}
						}
						JOINT RightShoulder_virtual
						{
							OFFSET 0.000000 0.000000 0.000000
							CHANNELS 3 Xrotation Yrotation Zrotation
							JOINT RightShoulder
							{
								OFFSET -15.263000 10.923401 -0.547700
								CHANNELS 3 Xrotation Yrotation Zrotation
								JOINT RightArm
								{
									OFFSET -25.438599 -2.830597 -13.032500
									CHANNELS 3 Xrotation Yrotation Zrotation
									JOINT RightForeArm
									{
										OFFSET -29.960503 0.000000 0.000000
										CHANNELS 3 Xrotation Yrotation Zrotation
										JOINT RightHand
										{
											OFFSET -27.849251 0.000000 0.000000
											CHANNELS 3 Xrotation Yrotation Zrotation
											End Site
											{
												OFFSET 0 0 0
											}
										}
									}
								}
							}
						}
					}
				}
			}
		}
	}
}
MOTION
Frames: 11
Frame Time: 0.03333333
-4.043245 77.021393 8.012814 0.000000 0.000000 0.000000 -39.947970 -84.875544 -32.966492 -49.162520 25.237880 52.326977 55.501096 -14.320724 -5.601268 -6.278808 -3.153463 -17.682188 0.000000 0.000000 0.000000 -38.689740 -83.782932 -31.258753 -49.827808 9.249522 -39.096358 62.446063 3.003134 1.652186 -6.004343 2.486797 18.108710 0.000000 0.000000 0.000000 -34.229035 -83.605976 -26.718481 -0.806143 -0.202907 -0.102262 6.865666 -6.431082 -10.158491 -0.977958 -2.512105 -4.046222 0.000000 0.000000 0.000000 -5.665593 -6.705172 -1.974614 0.749452 -7.740370 -1.812061 0.000000 0.000000 0.000000 -6.706283 -7.292643 0.370353 10.135830 -0.151568 -0.053256 -21.454415 15.842129 -2.037347 -2.366121 -35.836896 0.972770 0.000000 0.000000 0.000000 -3.347909 -5.644618 -2.918572 1.704804 10.009757 -7.527545 -15.079915 22.263295 38.805563 155.645326 30.788761 -161.780393 0.000000 0.000000 0.000000 
-4.117506 76.905724 8.001488 0.000000 0.000000 0.000000 -39.152215 -84.667332 -32.055376 -49.291822 25.194483 52.389935 55.670932 -14.430352 -5.680206 -6.262874 -3.226366 -17.660752 0.000000 0.000000 0.000000 -38.083612 -83.569099 -30.536399 -49.832015 9.440345 -39.201065 62.876672 2.890423 1.738606 -6.281437 2.277636 18.136753 0.000000 0.000000 0.000000 -33.874972 -83.393304 -26.246242 -0.806264 -0.204725 -0.102368 6.792225 -6.487721 -10.213028 -0.913995 -2.588287 -4.021012 0.000000 0.000000 0.000000 -5.629474 -6.808371 -1.939124 0.775498 -7.774408 -1.821477 0.000000 0.000000 0.000000 -6.675556 -7.410796 0.419369 10.061117 -0.052930 -0.074709 -21.445529 15.735332 -2.140855 -2.194944 -35.967056 1.019107 0.000000 0.000000 0.000000 -3.233705 -5.734519 -2.876094 1.655470 10.086891 -7.422586 -14.494988 21.657283 38.876238 155.801178 30.462876 -161.866290 0.000000 0.000000 0.000000 
-4.189803 76.780861 7.986855 0.000000 0.000000 0.000000 -38.436210 -84.449490 -31.217663 -49.437602 25.136257 52.463660 55.863960 -14.550948 -5.754588 -6.242327 -3.314079 -17.646149 0.000000 0.000000 0.000000 -37.540297 -83.345151 -29.869117 -49.831902 9.632515 -39.308046 63.322588 2.780940 1.814634 -6.572830 2.060866 18.167084 0.000000 0.000000 0.000000 -33.581704 -83.173290 -25.826330 -0.806870 -0.206634 -0.102165 6.717944 -6.537583 -10.274569 -0.846348 -2.657278 -3.994288 0.000000 0.000000 0.000000 -5.585496 -6.906611 -1.899939 0.802940 -7.804867 -1.829867 0.000000 0.000000 0.000000 -6.644172 -7.522642 0.470567 9.987480 0.028399 -0.076156 -21.443811 15.640884 -2.251092 -2.026483 -36.086051 1.061630 0.000000 0.000000 0.000000 -3.112234 -5.820497 -2.830306 1.606782 10.154269 -7.308496 -13.859161 21.012659 38.913152 155.996767 30.120007 -161.975860 0.000000 0.000000 0.000000 
-4.259684 76.645752 7.970737 0.000000 0.000000 0.000000 -37.820735 -84.225754 -30.473651 -49.595769 25.062377 52.545499 56.084831 -14.684953 -5.821266 -6.222554 -3.421703 -17.644969 0.000000 0.000000 0.000000 -37.075978 -83.115356 -29.273439 -49.832534 9.831225 -39.417811 63.786945 2.687035 1.880652 -6.858928 1.850863 18.215368 0.000000 0.000000 0.000000 -33.349635 -82.946282 -25.459383 -0.808026 -0.208286 -0.102114 6.649450 -6.583712 -10.341492 -0.778237 -2.719501 -3.967020 0.000000 0.000000 0.000000 -5.534926 -6.999883 -1.859155 0.830376 -7.831598 -1.835923 0.000000 0.000000 0.000000 -6.614183 -7.627928 0.522672 9.918066 0.078900 -0.059082 -21.445155 15.569047 -2.350073 -1.860781 -36.207666 1.097511 0.000000 0.000000 0.000000 -2.989004 -5.902769 -2.782444 1.560700 10.217771 -7.190313 -13.194263 20.340604 38.908599 156.229389 29.774116 -162.105579 0.000000 0.000000 0.000000 
-4.327161 76.501282 7.953377 0.000000 0.000000 0.000000 -37.310615 -83.999784 -29.828324 -49.767159 24.975668 52.636050 56.335294 -14.832056 -5.881104 -6.203413 -3.553405 -17.663762 0.000000 0.000000 0.000000 -36.692504 -82.882249 -28.752026 -49.843415 10.036958 -39.537752 64.277237 2.612900 1.941781 -7.134685 1.649853 18.275121 0.000000 0.000000 0.000000 -33.161204 -82.713468 -25.128630 -0.809206 -0.209843 -0.102637 6.593416 -6.629407 -10.414021 -0.713347 -2.775782 -3.939190 0.000000 0.000000 0.000000 -5.479720 -7.087839 -1.817750 0.856414 -7.854542 -1.838244 0.000000 0.000000 0.000000 -6.587992 -7.727148 0.575349 9.855610 0.088635 -0.025759 -21.440563 15.532492 -2.420873 -1.698023 -36.344639 1.124674 0.000000 0.000000 0.000000 -2.868832 -5.980716 -2.732725 1.518104 10.282792 -7.071233 -12.513940 19.661150 38.865125 156.493021 29.436917 -162.249095 0.000000 0.000000 0.000000 
-4.393086 76.347153 7.932587 0.000000 0.000000 0.000000 -36.902044 -83.775562 -29.278367 -49.954129 24.877321 52.735457 56.618812 -14.989986 -5.934472 -6.187204 -3.707982 -17.700418 0.000000 0.000000 0.000000 -36.384988 -82.650275 -28.301003 -49.870319 10.244311 -39.671624 64.801440 2.556718 2.001988 -7.407229 1.452801 18.326412 0.000000 0.000000 0.000000 -33.010403 -82.480572 -24.830062 -0.810304 -0.211601 -0.103880 6.552894 -6.677010 -10.496141 -0.655128 -2.827506 -3.910166 0.000000 0.000000 0.000000 -5.422153 -7.170006 -1.775719 0.879529 -7.873016 -1.836397 0.000000 0.000000 0.000000 -6.566964 -7.820420 0.629085 9.802712 0.051293 0.018747 -21.429198 15.534282 -2.445003 -1.538649 -36.503775 1.140976 0.000000 0.000000 0.000000 -2.755233 -6.054207 -2.681356 1.480099 10.353060 -6.949868 -11.821707 18.987479 38.786363 156.786145 29.113432 -162.405042 0.000000 0.000000 0.000000 
-4.457440 76.185303 7.908043 0.000000 0.000000 0.000000 -36.569909 -83.555029 -28.800319 -50.154209 24.767157 52.839590 56.936546 -15.155064 -5.979814 -6.180085 -3.878630 -17.745322 0.000000 0.000000 0.000000 -36.134211 -82.423451 -27.903539 -49.913271 10.452661 -39.819989 65.357028 2.517056 2.062063 -7.697421 1.253223 18.357436 0.000000 0.000000 0.000000 -32.886473 -82.250982 -24.553782 -0.811305 -0.213762 -0.105432 6.528354 -6.726305 -10.590090 -0.605674 -2.874768 -3.879749 0.000000 0.000000 0.000000 -5.364964 -7.246327 -1.732959 0.898566 -7.886073 -1.830388 0.000000 0.000000 0.000000 -6.551367 -7.907771 0.683858 9.762825 -0.035222 0.068993 -21.407095 15.571383 -2.416835 -1.384532 -36.676627 1.145192 0.000000 0.000000 0.000000 -2.651429 -6.122690 -2.628810 1.447531 10.431675 -6.826912 -11.112319 18.324633 38.674915 157.105730 28.806879 -162.569472 0.000000 0.000000 0.000000 
-4.520304 76.016701 7.878204 0.000000 0.000000 0.000000 -36.302233 -83.340944 -28.383065 -50.359821 24.647836 52.943757 57.280757 -15.324354 -6.017488 -6.188973 -4.059218 -17.791862 0.000000 0.000000 0.000000 -35.935613 -82.204346 -27.554984 -49.970122 10.666588 -39.983258 65.938776 2.494897 2.117144 -8.009999 1.053249 18.376440 0.000000 0.000000 0.000000 -32.790727 -82.028168 -24.301345 -0.812435 -0.216476 -0.106984 6.518424 -6.776659 -10.692980 -0.566859 -2.918381 -3.848923 0.000000 0.000000 0.000000 -5.309687 -7.316645 -1.690349 0.913053 -7.892727 -1.820703 0.000000 0.000000 0.000000 -6.539732 -7.989162 0.738579 9.738064 -0.169572 0.117895 -21.373136 15.634518 -2.340359 -1.237454 -36.846156 1.135137 0.000000 0.000000 0.000000 -2.556788 -6.185684 -2.576717 1.422372 10.519501 -6.706968 -10.380051 17.670804 38.535961 157.447362 28.519083 -162.738997 0.000000 0.000000 0.000000 
-4.581561 75.843178 7.842560 0.000000 0.000000 0.000000 -36.084190 -83.133613 -28.012569 -50.566069 24.526627 53.046835 57.636060 -15.495356 -6.051995 -6.214881 -4.246237 -17.837334 0.000000 0.000000 0.000000 -35.772907 -81.993375 -27.239057 -50.042272 10.890909 -40.160409 66.543207 2.493242 2.159346 -8.334368 0.860336 18.395468 0.000000 0.000000 0.000000 -32.731428 -81.814314 -24.081746 -0.813825 -0.219611 -0.108205 6.521364 -6.826829 -10.797604 -0.538198 -2.959245 -3.820186 0.000000 0.000000 0.000000 -5.256281 -7.381841 -1.650879 0.922395 -7.891566 -1.808516 0.000000 0.000000 0.000000 -6.529141 -8.064233 0.789823 9.730509 -0.347854 0.160002 -21.335291 15.715668 -2.216483 -1.098339 -37.003882 1.111121 0.000000 0.000000 0.000000 -2.473116 -6.243712 -2.528257 1.406730 10.616399 -6.596774 -9.635279 17.014662 38.379871 157.803693 28.251146 -162.907784 0.000000 0.000000 0.000000 
-4.640446 75.664871 7.802856 0.000000 0.000000 0.000000 -35.912038 -82.931645 -27.685207 -50.774257 24.410492 53.151719 57.994501 -15.664556 -6.088717 -6.245836 -4.433856 -17.875913 0.000000 0.000000 0.000000 -35.646341 -81.788305 -26.956153 -50.130361 11.121437 -40.353888 67.168278 2.510971 2.189742 -8.672646 0.674195 18.417395 0.000000 0.000000 0.000000 -32.714902 -81.608336 -23.901103 -0.815561 -0.222931 -0.109331 6.537186 -6.875541 -10.893291 -0.518538 -2.998835 -3.796972 0.000000 0.000000 0.000000 -5.204742 -7.442586 -1.618555 0.927241 -7.881757 -1.794949 0.000000 0.000000 0.000000 -6.517784 -8.133382 0.833662 9.740048 -0.563795 0.191110 -21.299385 15.815382 -2.049079 -0.968094 -37.149819 1.072710 0.000000 0.000000 0.000000 -2.401374 -6.296904 -2.487049 1.401360 10.724613 -6.503915 -8.896246 16.351710 38.227435 158.163849 28.002427 -163.070029 0.000000 0.000000 0.000000 
-4.697162 75.482460 7.760815 0.000000 0.000000 0.000000 -35.794313 -82.733877 -27.408770 -50.989326 24.308476 53.263383 58.353523 -15.827570 -6.132464 -6.265344 -4.615505 -17.900044 0.000000 0.000000 0.000000 -35.565932 -81.588044 -26.716177 -50.234849 11.347490 -40.563968 67.816006 2.542325 2.213387 -9.030080 0.490417 18.436757 0.000000 0.000000 0.000000 -32.748073 -81.408902 -23.767245 -0.817227 -0.226390 -0.110693 6.566304 -6.921711 -10.969446 -0.506432 -3.039033 -3.782761 0.000000 0.000000 0.000000 -5.154833 -7.499714 -1.597699 0.927858 -7.862438 -1.780969 0.000000 0.000000 0.000000 -6.504928 -8.197107 0.865901 9.765495 -0.808949 0.209722 -21.268818 15.942210 -1.834558 -0.848648 -37.300052 1.019473 0.000000 0.000000 0.000000 -2.342848 -6.346430 -2.456212 1.406522 10.845048 -6.432296 -8.177920 15.673505 38.096958 158.519197 27.768370 -163.220074 0.000000 0.000000 0.000000 
